<svg id="Build_Layer" data-name="Build Layer" xmlns="http://www.w3.org/2000/svg" viewBox="0 0 150 150"><defs><style>.cls-1{fill:#0d4599;}.cls-2{fill:#fff;}.cls-3{fill:#d1d1d5;}.cls-4{fill:#001751;}</style></defs><title>icon-name-md-outline copy 129</title><circle class="cls-1" cx="75" cy="75" r="75"/><path class="cls-2" d="M61.69,73.857s-1.463,13.716-1.818,33.184c-.2,10.773-1.739,26.872.876,27.688,2.135.667,8.278-14.949,13.591-26.865,4.832-10.838,14.4-29.072,14.4-29.072Z"/><path class="cls-3" d="M55.551,29.842l18.643-.481-6.42,8.66-12.669-5.9A1.2,1.2,0,0,1,55.551,29.842Z"/><path class="cls-2" d="M71.965,23.312A13.568,13.568,0,0,1,86.609,20.22c13.645,4.8,8.711,17.829,6.494,25.086-.626,2.049,16.044,27.157-8.4,39.145-18.2,8.924-25.418,2.138-27.8-1.818-9.612-15.969-3.813-24.668,9.353-44A28,28,0,0,1,71.965,23.312Z"/><path class="cls-4" d="M82.406,52.06a97.909,97.909,0,0,0,6.351,50.951c1.95,4.639,10.637-34.539,10.724-43.828S85.028,34.9,82.406,52.06Z"/><path class="cls-3" d="M35.629,90.179l80.84-7.827a3.221,3.221,0,0,1,.621,6.411l-.092.008L35.969,94.3a2.069,2.069,0,0,1-.34-4.124Z"/><rect class="cls-4" x="75.9" y="85.224" width="6.185" height="8.502" rx="1.946"/><rect class="cls-4" x="59.971" y="84.954" width="6.185" height="8.502" rx="1.946"/></svg>